# xmcd CD database file
#
# Track frame offsets:
#	150
#	24573
#	46325
#	62581
#	87436
#	109954
#	133994
#	148442
#	176188
#	190831
#	214497
#	224451
#	249880
#
# Disc length: 3574 seconds
#
# Revision: 0
# Processed by: cddbd v1.5.2PL0 Copyright (c) Steve Scherf et al.
# Submitted via: CDex 1.51
#
DISCID=d20df40d
DTITLE=Lee Gibson With Fat Chops Band - Frim Fram Sauce
DYEAR=1999
DGENRE=Jazz
TTITLE0=Love For Sale
TTITLE1=Lullaby Of The Leaves
TTITLE2=On A Clear Day
TTITLE3=Always And Forever
TTITLE4=Gershwin Medley
TTITLE5=Slausen Cut Off
TTITLE6=All Of You
TTITLE7=Pots And Pans
TTITLE8=A Time For Love
TTITLE9=La Muchacha De Columbia
TTITLE10=Feeling Groovy
TTITLE11=Laura
TTITLE12=Frim Fram Sauce
EXTD=YEAR: 1999
EXTT0=
EXTT1=
EXTT2=
EXTT3=
EXTT4=
EXTT5=
EXTT6=
EXTT7=
EXTT8=
EXTT9=
EXTT10=
EXTT11=
EXTT12=
PLAYORDER=
